<?xml version="1.0" standalone="no"?><!-- Generator: Gravit.io --><svg xmlns="http://www.w3.org/2000/svg" xmlns:xlink="http://www.w3.org/1999/xlink" style="isolation:isolate" viewBox="0 0 1108.8 360" width="1108.8" height="360"><defs><clipPath id="_clipPath_mgigdaK8zDnJe0OWCVAK83gcG7YrzKd4"><rect width="1108.8" height="360"/></clipPath></defs><mask id="_mask_gCWo0yKEjgtCu31PrBKwGhCP0Pg18ewF" x="-200%" y="-200%" width="400%" height="400%"><rect x="-200%" y="-200%" width="400%" height="400%" style="fill:white;"/><path d=" M 334.291 122.326 L 443.886 122.326 C 445.078 122.326 446.046 123.294 446.046 124.486 L 446.046 172.34 C 446.046 173.532 445.078 174.5 443.886 174.5 L 334.291 174.5 C 333.099 174.5 332.131 173.532 332.131 172.34 L 332.131 124.486 C 332.131 123.294 333.099 122.326 334.291 122.326 L 334.291 122.326 Z  M 530.879 157.563 L 607.997 157.563 C 609.189 157.563 610.157 158.53 610.157 159.723 L 610.157 234.903 C 610.157 236.095 609.189 237.063 607.997 237.063 L 530.879 237.063 C 529.686 237.063 528.719 236.095 528.719 234.903 L 528.719 159.723 C 528.719 158.53 529.686 157.563 530.879 157.563 L 530.879 157.563 Z  M 762.017 212.167 L 839.604 212.167 C 840.796 212.167 841.764 213.135 841.764 214.327 L 841.764 234.34 C 841.764 235.532 840.796 236.5 839.604 236.5 L 762.017 236.5 C 760.825 236.5 759.857 235.532 759.857 234.34 L 759.857 214.327 C 759.857 213.135 760.825 212.167 762.017 212.167 Z " fill-rule="evenodd" fill="black" stroke="none"/></mask><g clip-path="url(#_clipPath_mgigdaK8zDnJe0OWCVAK83gcG7YrzKd4)" mask="url(#_mask_gCWo0yKEjgtCu31PrBKwGhCP0Pg18ewF)"><path d=" M 223.437 97.302 L 270 179.425 L 223.437 261.237 L 185.175 194.608 L 193.798 179.425 L 185.175 164.376 L 223.437 97.302 Z " fill="rgb(0,0,0)"/><linearGradient id="_lgradient_8" x1="0.5" y1="0" x2="0.5000000000000003" y2="1" gradientTransform="matrix(127.42,0,0,180,90,90)" gradientUnits="userSpaceOnUse"><stop offset="0%" stop-opacity="1" style="stop-color:rgb(20,143,245)"/><stop offset="98.69565217391305%" stop-opacity="1" style="stop-color:rgb(0,179,255)"/></linearGradient><path d=" M 140.825 90 L 217.42 90 L 165.88 179.425 L 217.42 270 L 140.825 270 L 90 179.425 L 140.825 90 Z " fill="url(#_lgradient_8)"/><path d=" M 299.25 270 L 299.25 90 L 445.926 90 Q 478.837 94.924 479.25 125.25 Q 479.663 155.576 479.25 174.5 Q 475.402 208.14 445.926 208 Q 416.449 207.86 332.102 208 L 332.102 270 L 299.25 270 Z " fill="rgb(0,0,0)" vector-effect="non-scaling-stroke" stroke-width="1" stroke="rgb(0,0,0)" stroke-linejoin="miter" stroke-linecap="square" stroke-miterlimit="3"/><path d=" M 528.812 124.5 L 610.25 124.5 Q 643 124.5 643.25 157 Q 643.5 189.5 643.25 236.5 Q 643.5 269.75 610.25 270 Q 577 270.25 528.812 270 Q 495.502 270 495.501 236.5 Q 495.5 203 495.501 157 Q 495.624 124.75 528.812 124.5 Z " fill="rgb(0,0,0)" vector-effect="non-scaling-stroke" stroke-width="1" stroke="rgb(0,0,0)" stroke-linejoin="miter" stroke-linecap="square" stroke-miterlimit="3"/><path d=" M 726.961 157 L 726.961 124.5 L 841.762 124.5 Q 874.985 124.858 874.656 157 Q 874.327 189.142 874.656 270 L 759.856 270 Q 726.961 270.043 726.961 236.5 Q 726.961 202.957 726.961 179.425 L 841.762 179.425 L 841.762 157 L 726.961 157 Z " fill="rgb(0,0,0)" vector-effect="non-scaling-stroke" stroke-width="1" stroke="rgb(0,0,0)" stroke-linejoin="miter" stroke-linecap="square" stroke-miterlimit="3"/><path d="M 670.667 90 L 702 90 L 702 270 L 702 270 C 684.707 270 670.667 253.869 670.667 234 L 670.667 90 Z" style="stroke:none;fill:#000000;stroke-miterlimit:10;"/><path d=" M 900.333 270 L 933.667 270 L 933.667 157 L 1016 157 L 1016 124.5 L 933.667 124.5 Q 900.667 124.667 900.333 157 Q 900 189.333 900.333 270 Z " fill="rgb(0,0,0)" vector-effect="non-scaling-stroke" stroke-width="1" stroke="rgb(0,0,0)" stroke-linejoin="miter" stroke-linecap="square" stroke-miterlimit="3"/></g></svg>